<svg width="2475" height="268" viewBox="0 0 2475 268" fill="none" xmlns="http://www.w3.org/2000/svg">
<g clip-path="url(#clip0_13_65)">
<path fill-rule="evenodd" clip-rule="evenodd" d="M114.889 0.00167591L113.688 0.00273745C113.487 0.00244937 113.284 0.00199198 113.081 0.00153293C107.037 -0.0121358 100.342 -0.027277 95.6965 4.38206C93.1009 7.19764 92.1373 10.6806 92.0437 14.4394C91.9973 18.8814 92.7925 23.1083 95.9847 26.3808C101.039 31.2009 101.039 31.2009 117.7 31.1183C118.913 31.112 120.126 31.1098 121.339 31.1091C123.449 31.1079 125.559 31.1043 127.668 31.0974C130.745 31.087 133.823 31.0807 136.9 31.0774C142.056 31.0721 147.213 31.0638 152.37 31.052L152.823 31.051L156.918 31.0416C160.258 31.0339 163.598 31.0266 166.939 31.0197L167.392 31.0188C172.413 31.0084 177.434 31.0002 182.454 30.9944C185.542 30.9908 188.629 30.986 191.717 30.9765C193.848 30.9698 195.979 30.9648 198.11 30.9621L198.516 30.9617C199.615 30.9606 200.714 30.9595 201.813 30.9552C208.674 30.924 215.467 31.0404 222.247 32.2306L222.703 32.3115C227.464 33.1305 232.208 34.1289 236.756 35.789C237.077 35.9061 237.398 36.0216 237.72 36.1355C247.656 39.6432 256.998 44.557 265.451 50.8672L265.935 51.2305C268.001 52.7738 270.027 54.3499 271.985 56.0286L272.664 56.6199C273.839 57.6223 274.959 58.6642 276.052 59.7558L276.617 60.3251C279.032 62.7517 281.442 65.1825 283.578 67.8627C283.863 68.2199 284.148 68.5765 284.438 68.9292C285.711 70.4663 286.967 71.999 288.098 73.6441L288.102 73.6495C288.546 74.3105 288.988 74.9675 289.465 75.6055C290.709 77.249 291.763 78.9897 292.806 80.7651L293.523 81.9949C299.065 91.3608 303.018 101.495 305.282 112.152C305.361 112.522 305.44 112.892 305.521 113.262C305.989 115.391 306.309 117.537 306.602 119.695C306.675 120.235 306.747 120.775 306.822 121.314C306.944 122.186 307.055 123.059 307.151 123.934L307.205 124.436C308.184 133.104 307.954 142.128 306.43 150.723L306.308 151.383C306.25 151.707 306.191 152.031 306.133 152.355C305.598 155.344 305.06 158.346 304.186 161.254C303.986 161.906 303.79 162.559 303.599 163.213C303.481 163.617 303.365 164.021 303.248 164.425C302.502 167.014 301.754 169.611 300.687 172.085C300.344 172.843 300.043 173.527 299.903 174.356L299.804 174.962C299.312 175.454 299.312 175.454 298.803 176.648C295.24 185.061 290.265 193.328 284.287 200.242C283.83 200.769 283.381 201.297 282.947 201.844C281.683 203.452 280.277 204.882 278.822 206.314C278.186 206.938 277.553 207.564 276.926 208.196C275.195 209.976 273.418 211.652 271.51 213.24L271.094 213.586C267.948 216.217 264.705 218.747 261.266 220.987L260.552 221.445C257.847 223.22 255.105 224.842 252.213 226.294L251.58 226.61C244.226 230.302 236.438 233.584 228.346 235.258L227.805 235.368C226.693 235.599 225.579 235.827 224.464 236.043C224.082 236.116 223.701 236.191 223.319 236.266C221.141 236.74 218.994 237.085 216.777 237.307C216.22 237.362 215.662 237.416 215.105 237.474C205.755 238.113 205.755 238.113 196.378 238.083C195.2 238.081 194.022 238.08 192.843 238.079C190.795 238.078 188.747 238.076 186.699 238.074C183.716 238.07 180.733 238.067 177.75 238.066C172.903 238.063 168.057 238.06 163.211 238.056L162.333 238.055C158.21 238.051 154.087 238.047 149.964 238.043L149.081 238.042L148.199 238.041C143.331 238.036 138.464 238.032 133.596 238.03C130.602 238.029 127.608 238.027 124.614 238.022C122.547 238.019 120.481 238.017 118.415 238.016L118.025 238.016C116.962 238.016 115.899 238.016 114.835 238.014C113.732 238.011 112.628 238.009 111.525 238.01C111.12 238.01 110.716 238.01 110.312 238.01C105.29 237.99 100.041 238.312 96.145 241.88C93.3259 244.629 92.1249 247.88 92.0012 251.785C91.966 255.786 92.6939 259.988 95.5563 262.989C99.7673 266.828 104.658 267.671 110.118 267.639C110.49 267.637 110.996 267.638 111.459 267.638C111.698 267.639 111.926 267.639 112.118 267.639C112.46 267.639 112.792 267.64 113.119 267.64C114.119 267.642 115.075 267.643 116.118 267.639C117.235 267.635 118.39 267.636 119.536 267.638C120.237 267.639 120.935 267.64 121.618 267.639C122.761 267.638 123.94 267.64 125.127 267.641C126.974 267.642 128.84 267.644 130.618 267.639C132.223 267.634 134.296 267.636 136.308 267.638C137.862 267.64 139.38 267.641 140.618 267.639C143.823 267.635 147.399 267.638 151.023 267.642C155.544 267.646 160.139 267.65 164.18 267.64C164.24 267.64 164.301 267.64 164.361 267.64C164.375 267.64 164.389 267.64 164.403 267.64M164.404 267.639C164.513 267.639 164.618 267.639 164.618 267.639C164.546 267.639 164.475 267.64 164.403 267.64M164.404 267.639C164.512 267.584 164.618 267.53 164.618 267.639C167.466 267.648 170.245 267.644 173.032 267.641C175.21 267.639 177.393 267.636 179.618 267.639C180.7 267.641 181.701 267.639 182.692 267.638C183.967 267.636 185.225 267.635 186.618 267.639C187.693 267.643 188.91 267.729 190.129 267.815C191.367 267.903 192.606 267.991 193.698 267.992L194.091 267.992C195.114 267.993 196.137 267.993 197.161 267.997C211.432 268.06 225.794 267.075 239.557 263.039L239.746 262.983C240.423 262.783 241.1 262.584 241.781 262.399C244.418 261.705 246.964 260.86 249.515 259.893L250.235 259.62C261.52 255.388 272.199 250.065 282.074 243.103L282.533 242.778C284.871 241.133 287.147 239.435 289.349 237.611C289.839 237.204 290.332 236.801 290.828 236.402C292.102 235.38 293.311 234.305 294.504 233.19C295.01 232.717 295.517 232.246 296.039 231.79C297.842 230.25 299.475 228.539 301.1 226.815L301.542 226.344C302.374 225.458 303.194 224.565 303.993 223.649C304.412 223.166 304.833 222.687 305.262 222.213C306.122 221.271 306.959 220.315 307.766 219.326C308.102 218.91 308.439 218.493 308.775 218.077C315.538 210.006 321.066 200.926 325.496 191.387L325.822 190.681C329.573 182.576 332.629 174.074 334.628 165.364L334.793 164.632C335.458 161.704 335.976 158.753 336.439 155.787L336.616 154.639C337.624 148.259 338.043 141.93 337.997 135.477C337.991 134.782 337.988 134.087 337.987 133.392C337.987 133.136 337.987 132.881 337.987 132.626C337.984 129.551 337.982 126.474 337.767 123.406L337.709 122.64C332.804 88.9441 323.341 66.9727 308.773 49.3463C308.366 48.8557 307.964 48.3629 307.565 47.8656C306.544 46.5905 305.47 45.3792 304.357 44.1853C303.886 43.6812 303.419 43.1772 302.966 42.6569C301.179 40.5535 299.168 38.6607 297.126 36.8096C296.777 36.4934 296.429 36.1759 296.084 35.8553C294.41 34.2891 292.71 32.7675 290.947 31.3022L290.607 31.0203C287.51 28.4238 284.287 25.9939 280.964 23.6953L280.514 23.3853C276.236 20.4228 271.781 17.783 267.131 15.4495L266.384 15.0766C259.569 11.6575 252.613 8.86344 245.371 6.48879L244.852 6.31888C242.404 5.51613 239.958 4.76487 237.452 4.16625L237.001 4.05926C234.206 3.38775 231.404 2.78626 228.57 2.29525L227.132 2.05227C223.784 1.45888 220.438 1.04305 217.055 0.722312L216.422 0.662822C210.499 0.098605 204.613 -0.0020383 198.667 0.00146194C197.504 0.00221106 196.34 0.00196946 195.177 0.00138315C192.892 0.000193207 190.608 1.36727e-05 188.324 0.000646434C186.452 0.00117641 184.581 0.00150138 182.71 0.00130822L181.902 0.00120324L180.275 0.000991466C175.201 0.000303445 170.127 0.000772406 165.053 0.00197677C160.691 0.00301264 156.328 0.00318551 151.966 0.00218308C146.872 0.000975238 141.779 0.000240961 136.685 0.000880563L135.054 0.00109897L134.243 0.00120324C132.367 0.00144714 130.49 0.0013801 128.614 0.000871749C126.308 0.000219653 124.001 7.78318e-06 121.695 0.00100365L121.281 0.00122476C120.24 0.0017866 119.199 0.00234845 118.158 0.00189737C117.068 0.00119849 115.978 0.0007458 114.889 0.00167591" fill="currentColor"/>
<path d="M72.3974 58.0343C73.6247 58.0378 74.852 58.0373 76.0793 58.0373C78.5 58.0381 80.9207 58.0426 83.3414 58.0483C85.3308 58.0529 87.3202 58.056 89.3096 58.0581C89.7385 58.0586 89.7385 58.0586 90.1761 58.0591C90.7591 58.0597 91.3421 58.0603 91.925 58.0609C99.3541 58.069 106.783 58.0868 114.212 58.1062C115.416 58.1093 116.62 58.1124 117.824 58.1154C127.994 58.1409 138.163 58.1701 148.333 58.2035C149.546 58.2075 150.759 58.2114 151.973 58.2152C178.628 58.3006 178.628 58.3006 190.845 58.4347C191.458 58.4414 192.071 58.4479 192.684 58.4543C208.155 58.6196 223.074 59.5232 237.315 66.2115C237.511 66.3035 237.707 66.3954 237.909 66.4902C244.198 69.4724 250.023 73.4206 255.088 78.2009C255.624 78.704 256.167 79.192 256.724 79.6715C258.169 80.9273 259.443 82.3103 260.685 83.7644C260.862 83.9671 261.04 84.1699 261.223 84.3788C268.94 93.2577 274.472 104.093 277.313 115.495C277.411 115.871 277.508 116.248 277.606 116.625C280.207 126.892 280.824 137.296 278.785 147.716C278.665 148.333 278.553 148.952 278.441 149.572C276.341 160.623 270.866 171.398 263.831 180.08C263.584 180.392 263.584 180.392 263.332 180.71C260.115 184.726 256.453 188.644 252.371 191.782C252.118 191.989 251.867 192.197 251.616 192.405C242.862 199.639 231.506 205.311 220.237 207.085C220.009 207.122 219.782 207.159 219.548 207.197C211.659 208.478 203.802 208.689 195.826 208.783C195.54 208.787 195.54 208.787 195.247 208.79C182.813 208.941 170.379 208.931 157.944 208.938C156.255 208.939 154.566 208.94 152.877 208.941C147.061 208.945 141.245 208.948 135.429 208.95C135.069 208.95 134.708 208.95 134.348 208.95C134.169 208.95 133.99 208.95 133.806 208.951C132.902 208.951 131.997 208.951 131.092 208.951C130.913 208.951 130.733 208.951 130.548 208.952C124.693 208.953 118.837 208.959 112.982 208.966C106.745 208.974 100.508 208.978 94.2702 208.979C93.5856 208.979 92.9009 208.979 92.2162 208.979C92.0477 208.979 91.8792 208.979 91.7056 208.979C89.011 208.98 86.3165 208.983 83.6219 208.988C80.9191 208.992 78.2162 208.994 75.5133 208.992C74.0535 208.99 72.5937 208.991 71.1338 208.995C69.7945 208.999 68.4552 208.999 67.1159 208.996C66.6352 208.995 66.1545 208.996 65.6738 208.999C59.8948 209.029 53.9048 208.585 49.5142 204.463C46.6403 201.466 46.2296 197.696 46.24 193.709C46.2364 193.434 46.2328 193.16 46.2291 192.877C46.2269 188.877 47.3585 185.74 50.0707 182.81C54.5458 178.51 61.9398 178.4 67.7457 178.417C68.2352 178.416 68.7247 178.414 69.2142 178.413C70.5462 178.409 71.8782 178.41 73.2103 178.411C74.6531 178.411 76.0959 178.408 77.5388 178.405C80.0393 178.401 82.5398 178.399 85.0403 178.399C87.675 178.398 90.3097 178.397 92.9444 178.393C93.1918 178.393 93.1918 178.393 93.4442 178.392C94.2827 178.391 95.1211 178.39 95.9595 178.389C101.898 178.38 107.837 178.374 113.776 178.37C115.211 178.369 116.647 178.368 118.083 178.367C118.261 178.367 118.439 178.367 118.622 178.367C122.717 178.364 126.812 178.36 130.907 178.356C131.082 178.356 131.257 178.356 131.436 178.355C135.455 178.351 139.474 178.347 143.493 178.342C143.838 178.341 144.183 178.341 144.528 178.34C146.582 178.338 146.582 178.338 148.637 178.335C152.27 178.331 155.904 178.327 159.537 178.325C171.786 178.317 184.035 178.305 196.283 178.199C197 178.193 197.718 178.187 198.436 178.182C199.547 178.174 200.658 178.164 201.769 178.152C202.168 178.149 202.566 178.145 202.964 178.143C206.718 178.118 210.507 177.919 214.184 177.113C214.52 177.039 214.52 177.039 214.864 176.965C220.273 175.739 225.608 173.413 230.124 170.179C230.353 170.018 230.581 169.857 230.817 169.691C232.369 168.563 233.797 167.324 235.181 165.999C235.403 165.787 235.626 165.576 235.851 165.366C238.686 162.712 241.03 159.612 242.933 156.226C243.02 156.073 243.107 155.919 243.197 155.761C245.561 151.558 247.172 147.232 248.101 142.499C248.156 142.232 248.156 142.232 248.212 141.959C250.408 130.987 248.021 119.088 241.851 109.807C238.969 105.572 235.582 101.905 231.472 98.8419C231.281 98.6986 231.089 98.5553 230.891 98.4076C225.464 94.489 219.328 91.9636 212.821 90.5155C212.672 90.4807 212.522 90.4459 212.369 90.4101C207.478 89.2837 202.356 89.3231 197.365 89.3236C196.783 89.3221 196.2 89.3203 195.617 89.3183C194.362 89.3145 193.107 89.3121 191.852 89.3109C189.985 89.3091 188.119 89.3047 186.252 89.2998C183.109 89.2916 179.967 89.2853 176.824 89.28C172.53 89.2728 168.236 89.2624 163.942 89.2512C161.937 89.246 159.932 89.2409 157.926 89.2359C157.625 89.2351 157.625 89.2351 157.318 89.2343C152.551 89.2223 147.785 89.2116 143.018 89.2011C142.81 89.2007 142.601 89.2002 142.387 89.1998C137.525 89.1891 132.663 89.1788 127.801 89.169C126.114 89.1656 124.426 89.1622 122.738 89.1587C122.53 89.1583 122.321 89.1579 122.107 89.1574C117.346 89.1478 112.585 89.1376 107.824 89.1254C107.623 89.1249 107.423 89.1244 107.217 89.1239C105.216 89.1188 103.216 89.1135 101.215 89.1081C100.231 89.1055 99.2463 89.1029 98.2619 89.1003C98.0683 89.0997 97.8746 89.0992 97.675 89.0987C94.5668 89.0906 91.4586 89.085 88.3504 89.0804C85.2251 89.0757 82.0998 89.0687 78.9746 89.0593C77.1213 89.0538 75.2681 89.0502 73.4148 89.0492C72.0267 89.0483 70.6386 89.0439 69.2505 89.0382C68.6923 89.0364 68.1341 89.0358 67.5759 89.0364C61.521 89.0417 54.5449 88.9719 49.9311 84.4799C49.696 84.2371 49.696 84.2371 49.4562 83.9894C49.325 83.86 49.1938 83.7307 49.0586 83.5974C46.2309 80.6007 45.9159 75.8799 46.0153 71.9561C46.1919 68.5372 47.3377 64.9707 49.9056 62.6109C56.2263 57.401 64.6758 58.008 72.3974 58.0343Z" fill="black"/>
<path d="M22.7999 120.027C23.7597 120.029 24.7196 120.027 25.6794 120.026C27.3571 120.023 29.0348 120.024 30.7126 120.026C33.2074 120.029 35.7023 120.028 38.1971 120.027C42.6539 120.024 47.1106 120.025 51.5674 120.028C55.467 120.03 59.3665 120.031 63.2661 120.031C63.5251 120.031 63.7841 120.031 64.0509 120.031C65.1024 120.031 66.1539 120.031 67.2053 120.031C77.0608 120.03 86.9163 120.033 96.7718 120.037C105.524 120.041 114.275 120.043 123.027 120.041C123.589 120.041 124.151 120.041 124.714 120.041C124.991 120.041 125.269 120.041 125.556 120.041C126.955 120.041 128.354 120.041 129.753 120.041C130.029 120.041 130.305 120.04 130.589 120.04C137.908 120.04 145.227 120.041 152.546 120.043C153.333 120.043 154.121 120.043 154.909 120.043C155.431 120.043 155.954 120.044 156.476 120.044C160.115 120.045 163.755 120.045 167.394 120.044C172.084 120.044 176.773 120.045 181.463 120.048C183.942 120.05 186.421 120.051 188.9 120.049C190.557 120.049 192.214 120.05 193.871 120.052C194.814 120.053 195.757 120.054 196.7 120.052C203.88 120.043 203.88 120.043 206.967 120.564C207.193 120.601 207.193 120.601 207.423 120.639C210.418 121.134 212.911 122.039 215.294 123.951C215.437 124.064 215.58 124.176 215.728 124.292C217.603 125.952 218.772 128.73 218.944 131.201C219.092 135.57 219.169 139.764 216.17 143.241C212.788 146.798 207.633 147.764 202.881 147.906C202.054 147.914 201.228 147.916 200.401 147.915C200.081 147.915 199.76 147.916 199.439 147.916C198.559 147.918 197.679 147.918 196.8 147.918C195.842 147.918 194.884 147.919 193.926 147.92C192.026 147.922 190.127 147.923 188.228 147.924C185.952 147.924 183.677 147.926 181.401 147.928C175.901 147.933 170.401 147.935 164.9 147.937C162.297 147.938 159.693 147.939 157.089 147.941C148.172 147.945 139.255 147.948 130.338 147.95C129.778 147.95 129.218 147.95 128.658 147.95C128.381 147.95 128.103 147.95 127.817 147.95C126.411 147.95 125.005 147.951 123.599 147.951C123.32 147.951 123.041 147.951 122.753 147.951C113.712 147.953 104.67 147.958 95.6288 147.966C86.0638 147.973 76.4988 147.978 66.9337 147.979C65.8825 147.979 64.8313 147.979 63.7801 147.979C63.5212 147.979 63.2624 147.979 62.9957 147.979C58.8399 147.979 54.6841 147.983 50.5283 147.988C46.3459 147.992 42.1636 147.993 37.9812 147.991C35.5005 147.99 33.0197 147.991 30.539 147.996C28.8769 147.999 27.2148 147.999 25.5526 147.996C24.6089 147.995 23.6651 147.995 22.7214 147.998C19.1911 148.012 15.7108 147.943 12.205 147.496C11.9378 147.463 11.6707 147.43 11.3955 147.396C7.8105 146.879 4.6944 145.423 2.34134 142.601C-0.177497 138.919 -0.347257 133.897 0.364182 129.596C0.895563 127.675 1.70663 126.083 3.06487 124.628C3.19368 124.49 3.32249 124.351 3.4552 124.209C8.34818 119.468 16.5089 120.009 22.7999 120.027Z" fill="black"/>
<path d="M514.508 207.712C471.423 207.712 448.703 192.397 448.871 159.242H479.165C480.343 172.538 491.283 180.953 514.508 181.121C536.387 181.121 548.336 173.716 548.336 162.608C548.336 152.847 540.426 147.966 523.596 145.105L506.093 142.075C479.333 137.363 452.742 130.294 452.742 99.4955C452.742 72.7358 475.294 56.9156 514.845 56.9156C551.702 56.9156 577.284 69.8747 577.62 104.881H547.495C545.307 92.0903 535.377 83.507 514.171 83.507C494.985 83.507 484.887 90.0707 484.887 101.01C484.887 109.593 491.787 114.979 506.261 117.672L521.577 120.365C548.505 125.245 581.66 129.789 581.66 163.618C581.66 191.724 558.603 207.712 514.508 207.712ZM593.057 203V61.628H712.045V89.0609H626.548V120.028H709.015V144.263H626.548V175.399H712.045V203H593.057ZM799.698 207.712C753.92 207.712 722.28 176.745 722.28 132.314C722.28 87.8828 753.92 56.9156 799.698 56.9156C830.665 56.9156 862.473 70.7162 869.374 112.286H837.228C831.17 94.1099 817.201 86.0315 799.698 86.0315C774.621 86.0315 755.435 105.049 755.435 132.314C755.435 159.41 774.621 178.596 799.698 178.596C817.201 178.596 831.17 170.518 837.228 152.173H869.374C862.473 193.912 831.001 207.712 799.698 207.712ZM949.563 207.712C905.974 207.712 881.402 187.18 881.402 144.095V61.628H915.23V143.253C915.23 165.806 926.506 179.438 949.563 179.438C972.621 179.438 984.065 165.806 984.065 143.253V61.628H1017.72V144.095C1017.72 187.18 993.153 207.712 949.563 207.712ZM1167.73 203H1134.41L1111.18 160.925H1065.57V203H1032.08V61.628H1106.3C1144.17 61.628 1164.2 79.2995 1164.2 112.286C1164.2 131.977 1154.61 146.283 1140.13 154.193L1167.73 203ZM1065.57 89.7341V135.175H1104.45C1121.45 135.175 1130.88 127.433 1130.88 112.455C1130.88 97.4759 1121.45 89.7341 1104.45 89.7341H1065.57ZM1179.02 203V61.628H1298V89.0609H1212.51V120.028H1294.98V144.263H1212.51V175.399H1298V203H1179.02ZM1472.63 207.712C1426.86 207.712 1395.22 176.745 1395.22 132.314C1395.22 87.8828 1426.86 56.9156 1472.63 56.9156C1503.6 56.9156 1535.41 70.7162 1542.31 112.286H1510.17C1504.11 94.1099 1490.14 86.0315 1472.63 86.0315C1447.56 86.0315 1428.37 105.049 1428.37 132.314C1428.37 159.41 1447.56 178.596 1472.63 178.596C1490.14 178.596 1504.11 170.518 1510.17 152.173H1542.31C1535.41 193.912 1503.94 207.712 1472.63 207.712ZM1629.99 207.712C1583.88 207.712 1552.41 176.745 1552.41 132.314C1552.41 87.8828 1583.88 56.9156 1629.99 56.9156C1676.27 56.9156 1707.75 87.8828 1707.75 132.314C1707.75 176.745 1676.27 207.712 1629.99 207.712ZM1629.99 178.596C1655.24 178.596 1674.42 160.083 1674.42 132.314C1674.42 104.544 1655.24 86.0315 1629.99 86.0315C1604.92 86.0315 1585.56 104.544 1585.56 132.314C1585.56 160.083 1604.92 178.596 1629.99 178.596ZM1719.61 203V61.628H1758.49L1824.13 156.717H1827.33V61.628H1860.15V203H1821.94L1755.46 107.91H1752.43V203H1719.61ZM1874.44 203V61.628H1913.32L1978.95 156.717H1982.15V61.628H2014.97V203H1976.76L1910.29 107.91H1907.26V203H1874.44ZM2029.26 203V61.628H2148.25V89.0609H2062.75V120.028H2145.22V144.263H2062.75V175.399H2148.25V203H2029.26ZM2235.9 207.712C2190.12 207.712 2158.48 176.745 2158.48 132.314C2158.48 87.8828 2190.12 56.9156 2235.9 56.9156C2266.87 56.9156 2298.68 70.7162 2305.58 112.286H2273.43C2267.37 94.1099 2253.4 86.0315 2235.9 86.0315C2210.82 86.0315 2191.64 105.049 2191.64 132.314C2191.64 159.41 2210.82 178.596 2235.9 178.596C2253.4 178.596 2267.37 170.518 2273.43 152.173H2305.58C2298.68 193.912 2267.21 207.712 2235.9 207.712ZM2450.76 61.628V89.7341H2397.75V203H2364.09V89.7341H2311.24V61.628H2450.76Z" fill="black"/>
</g>
<rect x="0.5" y="0.5" width="2473.38" height="267" rx="1.5" stroke="currentColor" stroke-opacity="0.1"/>
<defs>
<clipPath id="clip0_13_65">
<rect width="2474.38" height="268" rx="2" fill="currentColor"/>
</clipPath>
</defs>
</svg>